<svg width="206" height="206" viewBox="0 0 206 206" fill="none" xmlns="http://www.w3.org/2000/svg">
<rect x="85.6309" y="184.215" width="5" height="20" transform="rotate(10 85.6309 184.215)" fill="black"/>
<rect x="204.957" y="117.931" width="5" height="20" transform="rotate(100 204.957 117.931)" fill="black"/>
<rect x="21.7812" y="85.6324" width="5" height="20" transform="rotate(100 21.7812 85.6324)" fill="black"/>
<rect x="100" y="185.998" width="5" height="20" fill="black"/>
<rect x="71.791" y="179.965" width="5" height="20" transform="rotate(20 71.791 179.965)" fill="black"/>
<rect x="58.9004" y="173.377" width="5" height="20" transform="rotate(30 58.9004 173.377)" fill="black"/>
<rect x="48.1152" y="165.292" width="5" height="20" transform="rotate(40 48.1152 165.292)" fill="black"/>
<rect x="38.1328" y="154.815" width="5" height="20" transform="rotate(50 38.1328 154.815)" fill="black"/>
<rect x="29.6191" y="141.899" width="5" height="20" transform="rotate(60 29.6191 141.899)" fill="black"/>
<rect x="23.9766" y="128.564" width="5" height="20" transform="rotate(70 23.9766 128.564)" fill="black"/>
<rect x="20.9121" y="115.442" width="5" height="20" transform="rotate(80 20.9121 115.442)" fill="black"/>
<rect x="204.111" y="83.2437" width="5" height="20" transform="rotate(80 204.111 83.2437)" fill="black"/>
<rect x="122.854" y="204.084" width="5" height="20" transform="rotate(170 122.854 204.084)" fill="black"/>
<rect x="198.705" y="64.8068" width="5" height="20" transform="rotate(70 198.705 64.8068)" fill="black"/>
<rect x="141.049" y="198.76" width="5" height="20" transform="rotate(160 141.049 198.76)" fill="black"/>
<rect x="190.703" y="48.9008" width="5" height="20" transform="rotate(60 190.703 48.9008)" fill="black"/>
<rect x="157.1" y="190.697" width="5" height="20" transform="rotate(150 157.1 190.697)" fill="black"/>
<rect x="170.74" y="180.613" width="5" height="20" transform="rotate(140 170.74 180.613)" fill="black"/>
<rect x="183.188" y="167.671" width="5" height="20" transform="rotate(130 183.188 167.671)" fill="black"/>
<rect x="193.701" y="151.899" width="5" height="20" transform="rotate(120 193.701 151.899)" fill="black"/>
<rect x="32.6191" y="58.9009" width="5" height="20" transform="rotate(120 32.6191 58.9009)" fill="black"/>
<rect x="200.816" y="135.406" width="5" height="20" transform="rotate(110 200.816 135.406)" fill="black"/>
<rect x="26.0312" y="71.7925" width="5" height="20" transform="rotate(110 26.0312 71.7925)" fill="black"/>
<rect x="20" y="99.9999" width="5" height="20" transform="rotate(90 20 99.9999)" fill="black"/>
<rect x="206.002" y="99.9999" width="5" height="20" transform="rotate(90 206.002 99.9999)" fill="black"/>
</svg>
