<svg width="206" height="206" viewBox="0 0 206 206" fill="none" xmlns="http://www.w3.org/2000/svg">
<rect x="85.6309" y="184.215" width="5" height="20" transform="rotate(10 85.6309 184.215)" fill="black"/>
<rect x="99.998" y="185.998" width="5" height="20" fill="black"/>
<rect x="71.791" y="179.965" width="5" height="20" transform="rotate(20 71.791 179.965)" fill="black"/>
<rect x="58.9004" y="173.377" width="5" height="20" transform="rotate(30 58.9004 173.377)" fill="black"/>
<rect x="48.1152" y="165.292" width="5" height="20" transform="rotate(40 48.1152 165.292)" fill="black"/>
<rect x="38.1309" y="154.815" width="5" height="20" transform="rotate(50 38.1309 154.815)" fill="black"/>
<rect x="29.6191" y="141.899" width="5" height="20" transform="rotate(60 29.6191 141.899)" fill="black"/>
<rect x="23.9766" y="128.564" width="5" height="20" transform="rotate(70 23.9766 128.564)" fill="black"/>
<rect x="122.854" y="204.084" width="5" height="20" transform="rotate(170 122.854 204.084)" fill="black"/>
<rect x="141.047" y="198.76" width="5" height="20" transform="rotate(160 141.047 198.76)" fill="black"/>
<rect x="157.1" y="190.697" width="5" height="20" transform="rotate(150 157.1 190.697)" fill="black"/>
<rect x="170.74" y="180.613" width="5" height="20" transform="rotate(140 170.74 180.613)" fill="black"/>
<rect x="183.188" y="167.671" width="5" height="20" transform="rotate(130 183.188 167.671)" fill="black"/>
<rect x="193.701" y="151.899" width="5" height="20" transform="rotate(120 193.701 151.899)" fill="black"/>
<rect x="200.816" y="135.406" width="5" height="20" transform="rotate(110 200.816 135.406)" fill="black"/>
</svg>
