<svg width="8" height="8" viewBox="0 0 8 8" fill="none" xmlns="http://www.w3.org/2000/svg">
<path d="M7.30718 3.86671C6.63384 2.30337 5.36718 1.33337 4.00051 1.33337C2.63384 1.33337 1.36718 2.30337 0.693844 3.86671C0.675489 3.90876 0.666016 3.95415 0.666016 4.00004C0.666016 4.04593 0.675489 4.09132 0.693844 4.13337C1.36718 5.69671 2.63384 6.66671 4.00051 6.66671C5.36718 6.66671 6.63384 5.69671 7.30718 4.13337C7.32553 4.09132 7.335 4.04593 7.335 4.00004C7.335 3.95415 7.32553 3.90876 7.30718 3.86671ZM4.00051 6.00004C2.94384 6.00004 1.94384 5.23671 1.36718 4.00004C1.94384 2.76337 2.94384 2.00004 4.00051 2.00004C5.05718 2.00004 6.05718 2.76337 6.63384 4.00004C6.05718 5.23671 5.05718 6.00004 4.00051 6.00004ZM4.00051 2.66671C3.7368 2.66671 3.47902 2.74491 3.25975 2.89141C3.04048 3.03792 2.86959 3.24616 2.76867 3.4898C2.66775 3.73343 2.64135 4.00152 2.6928 4.26016C2.74424 4.5188 2.87123 4.75638 3.0577 4.94285C3.24417 5.12932 3.48175 5.25631 3.74039 5.30775C3.99903 5.3592 4.26712 5.3328 4.51076 5.23188C4.75439 5.13096 4.96263 4.96007 5.10914 4.7408C5.25564 4.52154 5.33384 4.26375 5.33384 4.00004C5.33384 3.64642 5.19337 3.30728 4.94332 3.05723C4.69327 2.80718 4.35413 2.66671 4.00051 2.66671ZM4.00051 4.66671C3.86866 4.66671 3.73976 4.62761 3.63013 4.55435C3.5205 4.4811 3.43505 4.37698 3.38459 4.25516C3.33413 4.13335 3.32093 3.9993 3.34665 3.86998C3.37238 3.74066 3.43587 3.62187 3.52911 3.52864C3.62234 3.4354 3.74113 3.37191 3.87045 3.34618C3.99977 3.32046 4.13382 3.33366 4.25563 3.38412C4.37745 3.43458 4.48157 3.52003 4.55482 3.62966C4.62808 3.73929 4.66718 3.86819 4.66718 4.00004C4.66718 4.17685 4.59694 4.34642 4.47191 4.47145C4.34689 4.59647 4.17732 4.66671 4.00051 4.66671Z" fill="black" fill-opacity="0.5"/>
</svg>
