<svg width="195" height="140" viewBox="0 0 195 140" fill="none" xmlns="http://www.w3.org/2000/svg">
<g clip-path="url(#clip0_1962_972)">
<g opacity="0.8" filter="url(#filter0_d_1962_972)">
<mask id="path-1-outside-1_1962_972" maskUnits="userSpaceOnUse" x="9" y="9" width="177" height="122" fill="black">
<rect fill="white" x="9" y="9" width="177" height="122"/>
<path d="M10 30C10 18.9543 18.9543 10 30 10H88C93.799 10 98.5 14.701 98.5 20.5C98.5 26.299 103.201 31 109 31H165C176.046 31 185 39.9543 185 51V110C185 121.046 176.046 130 165 130H30C18.9543 130 10 121.046 10 110V30Z"/>
</mask>
<path d="M10 30C10 18.9543 18.9543 10 30 10H88C93.799 10 98.5 14.701 98.5 20.5C98.5 26.299 103.201 31 109 31H165C176.046 31 185 39.9543 185 51V110C185 121.046 176.046 130 165 130H30C18.9543 130 10 121.046 10 110V30Z" fill="#FFD0DC"/>
<g clip-path="url(#paint0_diamond_1962_972_clip_path)" data-figma-skip-parse="true" mask="url(#path-1-outside-1_1962_972)"><g transform="matrix(-0.1749 -0.119931 0.1749 -0.119931 185 130)"><rect x="0" y="0" width="1004.09" height="503.8" fill="url(#paint0_diamond_1962_972)" opacity="1" shape-rendering="crispEdges"/><rect x="0" y="0" width="1004.09" height="503.8" transform="scale(1 -1)" fill="url(#paint0_diamond_1962_972)" opacity="1" shape-rendering="crispEdges"/><rect x="0" y="0" width="1004.09" height="503.8" transform="scale(-1 1)" fill="url(#paint0_diamond_1962_972)" opacity="1" shape-rendering="crispEdges"/><rect x="0" y="0" width="1004.09" height="503.8" transform="scale(-1)" fill="url(#paint0_diamond_1962_972)" opacity="1" shape-rendering="crispEdges"/></g></g><path d="M185 51H184.5V110H185H185.5V51H185ZM165 130V129.5H30V130V130.5H165V130ZM10 110H10.5V30H10H9.5V110H10ZM109 31V31.5H165V31V30.5H109V31ZM30 10V10.5H88V10V9.5H30V10ZM88 10V10.5C93.5229 10.5 98 14.9772 98 20.5H98.5H99C99 14.4249 94.0751 9.5 88 9.5V10ZM109 31V30.5C103.477 30.5 99 26.0228 99 20.5H98.5H98C98 26.5751 102.925 31.5 109 31.5V31ZM30 130V129.5C19.2304 129.5 10.5 120.77 10.5 110H10H9.5C9.5 121.322 18.6782 130.5 30 130.5V130ZM185 110H184.5C184.5 120.77 175.77 129.5 165 129.5V130V130.5C176.322 130.5 185.5 121.322 185.5 110H185ZM185 51H185.5C185.5 39.6782 176.322 30.5 165 30.5V31V31.5C175.77 31.5 184.5 40.2304 184.5 51H185ZM10 30H10.5C10.5 19.2304 19.2304 10.5 30 10.5V10V9.5C18.6782 9.5 9.5 18.6782 9.5 30H10Z" data-figma-gradient-fill="{&#34;type&#34;:&#34;GRADIENT_DIAMOND&#34;,&#34;stops&#34;:[{&#34;color&#34;:{&#34;r&#34;:0.0,&#34;g&#34;:0.0,&#34;b&#34;:0.0,&#34;a&#34;:0.0},&#34;position&#34;:0.0},{&#34;color&#34;:{&#34;r&#34;:1.0,&#34;g&#34;:1.0,&#34;b&#34;:1.0,&#34;a&#34;:1.0},&#34;position&#34;:1.0}],&#34;stopsVar&#34;:[{&#34;color&#34;:{&#34;r&#34;:0.0,&#34;g&#34;:0.0,&#34;b&#34;:0.0,&#34;a&#34;:0.0},&#34;position&#34;:0.0},{&#34;color&#34;:{&#34;r&#34;:1.0,&#34;g&#34;:1.0,&#34;b&#34;:1.0,&#34;a&#34;:1.0},&#34;position&#34;:1.0}],&#34;transform&#34;:{&#34;m00&#34;:-349.80001831054688,&#34;m01&#34;:349.80001831054688,&#34;m02&#34;:185.00007629394531,&#34;m10&#34;:-239.86286926269531,&#34;m11&#34;:-239.86286926269531,&#34;m12&#34;:369.86291503906250},&#34;opacity&#34;:1.0,&#34;blendMode&#34;:&#34;NORMAL&#34;,&#34;visible&#34;:true}" mask="url(#path-1-outside-1_1962_972)"/>
</g>
<mask id="path-3-outside-2_1962_972" maskUnits="userSpaceOnUse" x="9" y="39" width="177" height="92" fill="black">
<rect fill="white" x="9" y="39" width="177" height="92"/>
<path d="M10 60C10 48.9543 18.9543 40 30 40H165C176.046 40 185 48.9543 185 60V110C185 121.046 176.046 130 165 130H30C18.9543 130 10 121.046 10 110V60Z"/>
</mask>
<path d="M10 60C10 48.9543 18.9543 40 30 40H165C176.046 40 185 48.9543 185 60V110C185 121.046 176.046 130 165 130H30C18.9543 130 10 121.046 10 110V60Z" fill="#FFE9EF"/>
<g clip-path="url(#paint1_diamond_1962_972_clip_path)" data-figma-skip-parse="true" mask="url(#path-3-outside-2_1962_972)"><g transform="matrix(-0.1749 -0.0899486 0.1749 -0.0899486 185 130)"><rect x="0" y="0" width="1004.78" height="504.495" fill="url(#paint1_diamond_1962_972)" opacity="1" shape-rendering="crispEdges"/><rect x="0" y="0" width="1004.78" height="504.495" transform="scale(1 -1)" fill="url(#paint1_diamond_1962_972)" opacity="1" shape-rendering="crispEdges"/><rect x="0" y="0" width="1004.78" height="504.495" transform="scale(-1 1)" fill="url(#paint1_diamond_1962_972)" opacity="1" shape-rendering="crispEdges"/><rect x="0" y="0" width="1004.78" height="504.495" transform="scale(-1)" fill="url(#paint1_diamond_1962_972)" opacity="1" shape-rendering="crispEdges"/></g></g><path d="M30 40V40.5H165V40V39.5H30V40ZM185 60H184.5V110H185H185.5V60H185ZM165 130V129.5H30V130V130.5H165V130ZM10 110H10.5V60H10H9.5V110H10ZM30 130V129.5C19.2304 129.5 10.5 120.77 10.5 110H10H9.5C9.5 121.322 18.6782 130.5 30 130.5V130ZM185 110H184.5C184.5 120.77 175.77 129.5 165 129.5V130V130.5C176.322 130.5 185.5 121.322 185.5 110H185ZM165 40V40.5C175.77 40.5 184.5 49.2304 184.5 60H185H185.5C185.5 48.6782 176.322 39.5 165 39.5V40ZM30 40V39.5C18.6782 39.5 9.5 48.6782 9.5 60H10H10.5C10.5 49.2304 19.2304 40.5 30 40.5V40Z" data-figma-gradient-fill="{&#34;type&#34;:&#34;GRADIENT_DIAMOND&#34;,&#34;stops&#34;:[{&#34;color&#34;:{&#34;r&#34;:0.0,&#34;g&#34;:0.0,&#34;b&#34;:0.0,&#34;a&#34;:0.0},&#34;position&#34;:0.0},{&#34;color&#34;:{&#34;r&#34;:1.0,&#34;g&#34;:1.0,&#34;b&#34;:1.0,&#34;a&#34;:1.0},&#34;position&#34;:1.0}],&#34;stopsVar&#34;:[{&#34;color&#34;:{&#34;r&#34;:0.0,&#34;g&#34;:0.0,&#34;b&#34;:0.0,&#34;a&#34;:0.0},&#34;position&#34;:0.0},{&#34;color&#34;:{&#34;r&#34;:1.0,&#34;g&#34;:1.0,&#34;b&#34;:1.0,&#34;a&#34;:1.0},&#34;position&#34;:1.0}],&#34;transform&#34;:{&#34;m00&#34;:-349.80001831054688,&#34;m01&#34;:349.80001831054688,&#34;m02&#34;:185.00007629394531,&#34;m10&#34;:-179.89714050292969,&#34;m11&#34;:-179.89714050292969,&#34;m12&#34;:309.89718627929688},&#34;opacity&#34;:1.0,&#34;blendMode&#34;:&#34;NORMAL&#34;,&#34;visible&#34;:true}" mask="url(#path-3-outside-2_1962_972)"/>
</g>
<defs>
<filter id="filter0_d_1962_972" x="5.5" y="5.5" width="192" height="137" filterUnits="userSpaceOnUse" color-interpolation-filters="sRGB">
<feFlood flood-opacity="0" result="BackgroundImageFix"/>
<feColorMatrix in="SourceAlpha" type="matrix" values="0 0 0 0 0 0 0 0 0 0 0 0 0 0 0 0 0 0 127 0" result="hardAlpha"/>
<feOffset dx="4" dy="4"/>
<feGaussianBlur stdDeviation="4"/>
<feColorMatrix type="matrix" values="0 0 0 0 0 0 0 0 0 0 0 0 0 0 0 0 0 0 0.25 0"/>
<feBlend mode="normal" in2="BackgroundImageFix" result="effect1_dropShadow_1962_972"/>
<feBlend mode="normal" in="SourceGraphic" in2="effect1_dropShadow_1962_972" result="shape"/>
</filter>
<clipPath id="paint0_diamond_1962_972_clip_path"><path d="M185 51H184.5V110H185H185.5V51H185ZM165 130V129.5H30V130V130.5H165V130ZM10 110H10.5V30H10H9.5V110H10ZM109 31V31.5H165V31V30.5H109V31ZM30 10V10.5H88V10V9.5H30V10ZM88 10V10.5C93.5229 10.5 98 14.9772 98 20.5H98.5H99C99 14.4249 94.0751 9.5 88 9.5V10ZM109 31V30.5C103.477 30.5 99 26.0228 99 20.5H98.5H98C98 26.5751 102.925 31.5 109 31.5V31ZM30 130V129.5C19.2304 129.5 10.5 120.77 10.5 110H10H9.5C9.5 121.322 18.6782 130.5 30 130.5V130ZM185 110H184.5C184.5 120.77 175.77 129.5 165 129.5V130V130.5C176.322 130.5 185.5 121.322 185.5 110H185ZM185 51H185.5C185.5 39.6782 176.322 30.5 165 30.5V31V31.5C175.77 31.5 184.5 40.2304 184.5 51H185ZM10 30H10.5C10.5 19.2304 19.2304 10.5 30 10.5V10V9.5C18.6782 9.5 9.5 18.6782 9.5 30H10Z" mask="url(#path-1-outside-1_1962_972)"/></clipPath><clipPath id="paint1_diamond_1962_972_clip_path"><path d="M30 40V40.5H165V40V39.5H30V40ZM185 60H184.5V110H185H185.5V60H185ZM165 130V129.5H30V130V130.5H165V130ZM10 110H10.5V60H10H9.5V110H10ZM30 130V129.5C19.2304 129.5 10.5 120.77 10.5 110H10H9.5C9.5 121.322 18.6782 130.5 30 130.5V130ZM185 110H184.5C184.5 120.77 175.77 129.5 165 129.5V130V130.5C176.322 130.5 185.5 121.322 185.5 110H185ZM165 40V40.5C175.77 40.5 184.5 49.2304 184.5 60H185H185.5C185.5 48.6782 176.322 39.5 165 39.5V40ZM30 40V39.5C18.6782 39.5 9.5 48.6782 9.5 60H10H10.5C10.5 49.2304 19.2304 40.5 30 40.5V40Z" mask="url(#path-3-outside-2_1962_972)"/></clipPath><linearGradient id="paint0_diamond_1962_972" x1="0" y1="0" x2="500" y2="500" gradientUnits="userSpaceOnUse">
<stop stop-opacity="0"/>
<stop offset="1" stop-color="white"/>
</linearGradient>
<linearGradient id="paint1_diamond_1962_972" x1="0" y1="0" x2="500" y2="500" gradientUnits="userSpaceOnUse">
<stop stop-opacity="0"/>
<stop offset="1" stop-color="white"/>
</linearGradient>
<clipPath id="clip0_1962_972">
<rect width="195" height="140" fill="white"/>
</clipPath>
</defs>
</svg>
