<svg width="176" height="121" viewBox="0 0 176 121" fill="none" xmlns="http://www.w3.org/2000/svg">
<g opacity="0.8">
<mask id="path-1-outside-1_1958_1088" maskUnits="userSpaceOnUse" x="-0.5" y="-0.5" width="177" height="122" fill="black">
<rect fill="white" x="-0.5" y="-0.5" width="177" height="122"/>
<path d="M0.5 20.5C0.5 9.45431 9.45431 0.5 20.5 0.5H78.5C84.299 0.5 89 5.20101 89 11C89 16.799 93.701 21.5 99.5 21.5H155.5C166.546 21.5 175.5 30.4543 175.5 41.5V100.5C175.5 111.546 166.546 120.5 155.5 120.5H20.5C9.4543 120.5 0.5 111.546 0.5 100.5V20.5Z"/>
</mask>
<path d="M0.5 20.5C0.5 9.45431 9.45431 0.5 20.5 0.5H78.5C84.299 0.5 89 5.20101 89 11C89 16.799 93.701 21.5 99.5 21.5H155.5C166.546 21.5 175.5 30.4543 175.5 41.5V100.5C175.5 111.546 166.546 120.5 155.5 120.5H20.5C9.4543 120.5 0.5 111.546 0.5 100.5V20.5Z" fill="#FFD0DC"/>
<g clip-path="url(#paint0_diamond_1958_1088_clip_path)" data-figma-skip-parse="true" mask="url(#path-1-outside-1_1958_1088)"><g transform="matrix(-0.1749 -0.119931 0.1749 -0.119931 175.5 120.5)"><rect x="0" y="0" width="1004.09" height="503.8" fill="url(#paint0_diamond_1958_1088)" opacity="1" shape-rendering="crispEdges"/><rect x="0" y="0" width="1004.09" height="503.8" transform="scale(1 -1)" fill="url(#paint0_diamond_1958_1088)" opacity="1" shape-rendering="crispEdges"/><rect x="0" y="0" width="1004.09" height="503.8" transform="scale(-1 1)" fill="url(#paint0_diamond_1958_1088)" opacity="1" shape-rendering="crispEdges"/><rect x="0" y="0" width="1004.09" height="503.8" transform="scale(-1)" fill="url(#paint0_diamond_1958_1088)" opacity="1" shape-rendering="crispEdges"/></g></g><path d="M175.5 41.5H175V100.5H175.5H176V41.5H175.5ZM155.5 120.5V120H20.5V120.5V121H155.5V120.5ZM0.5 100.5H1V20.5H0.5H0V100.5H0.5ZM99.5 21.5V22H155.5V21.5V21H99.5V21.5ZM20.5 0.5V1H78.5V0.5V0H20.5V0.5ZM78.5 0.5V1C84.0229 1 88.5 5.47715 88.5 11H89H89.5C89.5 4.92487 84.5751 0 78.5 0V0.5ZM99.5 21.5V21C93.9771 21 89.5 16.5228 89.5 11H89H88.5C88.5 17.0751 93.4249 22 99.5 22V21.5ZM20.5 120.5V120C9.73045 120 1 111.27 1 100.5H0.5H0C0 111.822 9.17816 121 20.5 121V120.5ZM175.5 100.5H175C175 111.27 166.27 120 155.5 120V120.5V121C166.822 121 176 111.822 176 100.5H175.5ZM175.5 41.5H176C176 30.1782 166.822 21 155.5 21V21.5V22C166.27 22 175 30.7304 175 41.5H175.5ZM0.5 20.5H1C1 9.73045 9.73045 1 20.5 1V0.5V0C9.17816 0 0 9.17817 0 20.5H0.5Z" data-figma-gradient-fill="{&#34;type&#34;:&#34;GRADIENT_DIAMOND&#34;,&#34;stops&#34;:[{&#34;color&#34;:{&#34;r&#34;:0.0,&#34;g&#34;:0.0,&#34;b&#34;:0.0,&#34;a&#34;:0.0},&#34;position&#34;:0.0},{&#34;color&#34;:{&#34;r&#34;:1.0,&#34;g&#34;:1.0,&#34;b&#34;:1.0,&#34;a&#34;:1.0},&#34;position&#34;:1.0}],&#34;stopsVar&#34;:[{&#34;color&#34;:{&#34;r&#34;:0.0,&#34;g&#34;:0.0,&#34;b&#34;:0.0,&#34;a&#34;:0.0},&#34;position&#34;:0.0},{&#34;color&#34;:{&#34;r&#34;:1.0,&#34;g&#34;:1.0,&#34;b&#34;:1.0,&#34;a&#34;:1.0},&#34;position&#34;:1.0}],&#34;transform&#34;:{&#34;m00&#34;:-349.80001831054688,&#34;m01&#34;:349.80001831054688,&#34;m02&#34;:175.50007629394531,&#34;m10&#34;:-239.86286926269531,&#34;m11&#34;:-239.86286926269531,&#34;m12&#34;:360.36291503906250},&#34;opacity&#34;:1.0,&#34;blendMode&#34;:&#34;NORMAL&#34;,&#34;visible&#34;:true}" mask="url(#path-1-outside-1_1958_1088)"/>
</g>
<defs>
<clipPath id="paint0_diamond_1958_1088_clip_path"><path d="M175.5 41.5H175V100.5H175.5H176V41.5H175.5ZM155.5 120.5V120H20.5V120.5V121H155.5V120.5ZM0.5 100.5H1V20.5H0.5H0V100.5H0.5ZM99.5 21.5V22H155.5V21.5V21H99.5V21.5ZM20.5 0.5V1H78.5V0.5V0H20.5V0.5ZM78.5 0.5V1C84.0229 1 88.5 5.47715 88.5 11H89H89.5C89.5 4.92487 84.5751 0 78.5 0V0.5ZM99.5 21.5V21C93.9771 21 89.5 16.5228 89.5 11H89H88.5C88.5 17.0751 93.4249 22 99.5 22V21.5ZM20.5 120.5V120C9.73045 120 1 111.27 1 100.5H0.5H0C0 111.822 9.17816 121 20.5 121V120.5ZM175.5 100.5H175C175 111.27 166.27 120 155.5 120V120.5V121C166.822 121 176 111.822 176 100.5H175.5ZM175.5 41.5H176C176 30.1782 166.822 21 155.5 21V21.5V22C166.27 22 175 30.7304 175 41.5H175.5ZM0.5 20.5H1C1 9.73045 9.73045 1 20.5 1V0.5V0C9.17816 0 0 9.17817 0 20.5H0.5Z" mask="url(#path-1-outside-1_1958_1088)"/></clipPath><linearGradient id="paint0_diamond_1958_1088" x1="0" y1="0" x2="500" y2="500" gradientUnits="userSpaceOnUse">
<stop stop-opacity="0"/>
<stop offset="1" stop-color="white"/>
</linearGradient>
</defs>
</svg>
