<svg width="25" height="25" viewBox="0 0 25 25" fill="none" xmlns="http://www.w3.org/2000/svg">
<path d="M15.625 21.875V13.5417C15.625 13.2654 15.5153 13.0004 15.3199 12.8051C15.1246 12.6097 14.8596 12.5 14.5833 12.5H10.4167C10.1404 12.5 9.87545 12.6097 9.6801 12.8051C9.48475 13.0004 9.375 13.2654 9.375 13.5417V21.875" stroke="black" stroke-width="1.2" stroke-linecap="round" stroke-linejoin="round"/>
<path d="M3.125 10.4168C3.12493 10.1138 3.19097 9.81436 3.31853 9.53946C3.44609 9.26456 3.63208 9.0208 3.86354 8.82517L11.1552 2.57517C11.5312 2.25737 12.0077 2.08301 12.5 2.08301C12.9923 2.08301 13.4688 2.25737 13.8448 2.57517L21.1365 8.82517C21.3679 9.0208 21.5539 9.26456 21.6815 9.53946C21.809 9.81436 21.8751 10.1138 21.875 10.4168V19.7918C21.875 20.3444 21.6555 20.8743 21.2648 21.265C20.8741 21.6557 20.3442 21.8752 19.7917 21.8752H5.20833C4.6558 21.8752 4.1259 21.6557 3.73519 21.265C3.34449 20.8743 3.125 20.3444 3.125 19.7918V10.4168Z" stroke="black" stroke-width="1.2" stroke-linecap="round" stroke-linejoin="round"/>
</svg>
