<svg width="206" height="207" viewBox="0 0 206 207" fill="none" xmlns="http://www.w3.org/2000/svg">
<rect x="85.6309" y="184.315" width="5" height="20" transform="rotate(10 85.6309 184.315)" fill="black"/>
<rect x="204.957" y="118.031" width="5" height="20" transform="rotate(100 204.957 118.031)" fill="black"/>
<rect x="21.7812" y="85.7317" width="5" height="20" transform="rotate(100 21.7812 85.7317)" fill="black"/>
<rect x="100" y="186.097" width="5" height="20" fill="black"/>
<rect x="71.791" y="180.065" width="5" height="20" transform="rotate(20 71.791 180.065)" fill="black"/>
<rect x="58.9004" y="173.476" width="5" height="20" transform="rotate(30 58.9004 173.476)" fill="black"/>
<rect x="48.1152" y="165.391" width="5" height="20" transform="rotate(40 48.1152 165.391)" fill="black"/>
<rect x="38.1328" y="154.915" width="5" height="20" transform="rotate(50 38.1328 154.915)" fill="black"/>
<rect x="29.6191" y="141.998" width="5" height="20" transform="rotate(60 29.6191 141.998)" fill="black"/>
<rect x="23.9766" y="128.663" width="5" height="20" transform="rotate(70 23.9766 128.663)" fill="black"/>
<rect x="20.9121" y="115.541" width="5" height="20" transform="rotate(80 20.9121 115.541)" fill="black"/>
<rect x="204.111" y="83.343" width="5" height="20" transform="rotate(80 204.111 83.343)" fill="black"/>
<rect x="122.854" y="204.184" width="5" height="20" transform="rotate(170 122.854 204.184)" fill="black"/>
<rect x="198.705" y="64.9061" width="5" height="20" transform="rotate(70 198.705 64.9061)" fill="black"/>
<rect x="141.049" y="198.86" width="5" height="20" transform="rotate(160 141.049 198.86)" fill="black"/>
<rect x="190.703" y="49.0001" width="5" height="20" transform="rotate(60 190.703 49.0001)" fill="black"/>
<rect x="157.1" y="190.797" width="5" height="20" transform="rotate(150 157.1 190.797)" fill="black"/>
<rect x="170.74" y="180.712" width="5" height="20" transform="rotate(140 170.74 180.712)" fill="black"/>
<rect x="183.188" y="167.77" width="5" height="20" transform="rotate(130 183.188 167.77)" fill="black"/>
<rect x="193.701" y="151.998" width="5" height="20" transform="rotate(120 193.701 151.998)" fill="black"/>
<rect x="32.6191" y="59.0002" width="5" height="20" transform="rotate(120 32.6191 59.0002)" fill="black"/>
<rect x="200.816" y="135.505" width="5" height="20" transform="rotate(110 200.816 135.505)" fill="black"/>
<rect x="26.0312" y="71.8918" width="5" height="20" transform="rotate(110 26.0312 71.8918)" fill="black"/>
<rect x="20" y="100.099" width="5" height="20" transform="rotate(90 20 100.099)" fill="black"/>
<rect x="206.002" y="100.099" width="5" height="20" transform="rotate(90 206.002 100.099)" fill="black"/>
</svg>
