<svg width="206" height="207" viewBox="0 0 206 207" fill="none" xmlns="http://www.w3.org/2000/svg">
<rect x="85.332" y="184.322" width="5" height="20" transform="rotate(10 85.332 184.322)" fill="black"/>
<rect x="99.7012" y="186.104" width="5" height="20" fill="black"/>
<rect x="71.4922" y="180.071" width="5" height="20" transform="rotate(20 71.4922 180.071)" fill="black"/>
<rect x="58.6016" y="173.483" width="5" height="20" transform="rotate(30 58.6016 173.483)" fill="black"/>
<rect x="47.8164" y="165.398" width="5" height="20" transform="rotate(40 47.8164 165.398)" fill="black"/>
<rect x="37.834" y="154.922" width="5" height="20" transform="rotate(50 37.834 154.922)" fill="black"/>
<rect x="29.3203" y="142.005" width="5" height="20" transform="rotate(60 29.3203 142.005)" fill="black"/>
<rect x="122.555" y="204.19" width="5" height="20" transform="rotate(170 122.555 204.19)" fill="black"/>
<rect x="140.75" y="198.866" width="5" height="20" transform="rotate(160 140.75 198.866)" fill="black"/>
<rect x="156.801" y="190.803" width="5" height="20" transform="rotate(150 156.801 190.803)" fill="black"/>
<rect x="170.441" y="180.719" width="5" height="20" transform="rotate(140 170.441 180.719)" fill="black"/>
<rect x="182.891" y="167.777" width="5" height="20" transform="rotate(130 182.891 167.777)" fill="black"/>
<rect x="193.402" y="152.005" width="5" height="20" transform="rotate(120 193.402 152.005)" fill="black"/>
</svg>
